<?xml version="1.0" encoding="UTF-8" standalone="no"?>
<!DOCTYPE svg PUBLIC "-//W3C//DTD SVG 1.1//EN"
 "http://www.w3.org/Graphics/SVG/1.1/DTD/svg11.dtd">
<!-- Generated by graphviz version 2.38.0 (20140413.2041)
 -->
<!-- Title: workflow Pages: 1 -->
<svg width="944pt" height="170pt"
 viewBox="0.00 0.00 944.00 170.00" xmlns="http://www.w3.org/2000/svg" xmlns:xlink="http://www.w3.org/1999/xlink">
<g id="graph0" class="graph" transform="scale(1 1) rotate(0) translate(4 166)">
<title>workflow</title>
<polygon fill="white" stroke="none" points="-4,4 -4,-166 940,-166 940,4 -4,4"/>
<!-- place_creee -->
<g id="node1" class="node"><title>place_creee</title>
<ellipse fill="lightblue" stroke="#333333" cx="36" cy="-43" rx="36" ry="36"/>
<text text-anchor="middle" x="36" y="-40.8" font-family="Arial" font-size="9.00">Creee</text>
</g>
<!-- transition_to_ouverte -->
<g id="node7" class="node"><title>transition_to_ouverte</title>
<polygon fill="none" stroke="#333333" points="180,-111 108,-111 108,-39 180,-39 180,-111"/>
<text text-anchor="middle" x="144" y="-72.8" font-family="Arial" font-size="9.00">to_Ouverte</text>
</g>
<!-- place_creee&#45;&gt;transition_to_ouverte -->
<g id="edge1" class="edge"><title>place_creee&#45;&gt;transition_to_ouverte</title>
<path fill="none" stroke="#333333" d="M70.8305,-53.213C81.0237,-56.2902 92.3101,-59.6974 102.871,-62.8856"/>
<polygon fill="#333333" stroke="#333333" points="102.373,-64.5632 107.666,-64.333 103.385,-61.2126 102.373,-64.5632"/>
</g>
<!-- transition_is_anulee -->
<g id="node10" class="node"><title>transition_is_anulee</title>
<polygon fill="none" stroke="#333333" points="612,-72 540,-72 540,-0 612,-0 612,-72"/>
<text text-anchor="middle" x="576" y="-33.8" font-family="Arial" font-size="9.00">is_anulee</text>
</g>
<!-- place_creee&#45;&gt;transition_is_anulee -->
<g id="edge7" class="edge"><title>place_creee&#45;&gt;transition_is_anulee</title>
<path fill="none" stroke="#333333" d="M71.2339,-34.6759C113.291,-25.1945 186.95,-11 251,-11 251,-11 251,-11 361,-11 421.926,-11 491.953,-21.1202 534.837,-28.4828"/>
<polygon fill="#333333" stroke="#333333" points="534.704,-30.2358 539.93,-29.3661 535.302,-26.7873 534.704,-30.2358"/>
</g>
<!-- place_ouverte -->
<g id="node2" class="node"><title>place_ouverte</title>
<ellipse fill="none" stroke="#333333" cx="252" cy="-75" rx="36" ry="36"/>
<text text-anchor="middle" x="252" y="-72.8" font-family="Arial" font-size="9.00">Ouverte</text>
</g>
<!-- transition_to_cloturee -->
<g id="node8" class="node"><title>transition_to_cloturee</title>
<polygon fill="none" stroke="#333333" points="396,-149 324,-149 324,-77 396,-77 396,-149"/>
<text text-anchor="middle" x="360" y="-110.8" font-family="Arial" font-size="9.00">to_Cloturee</text>
</g>
<!-- place_ouverte&#45;&gt;transition_to_cloturee -->
<g id="edge3" class="edge"><title>place_ouverte&#45;&gt;transition_to_cloturee</title>
<path fill="none" stroke="#333333" d="M286.248,-86.9192C296.568,-90.6187 308.054,-94.7362 318.794,-98.5864"/>
<polygon fill="#333333" stroke="#333333" points="318.372,-100.294 323.669,-100.334 319.553,-96.9995 318.372,-100.294"/>
</g>
<!-- place_ouverte&#45;&gt;transition_is_anulee -->
<g id="edge8" class="edge"><title>place_ouverte&#45;&gt;transition_is_anulee</title>
<path fill="none" stroke="#333333" d="M287.766,-70.7893C347.872,-63.5093 470.884,-48.6103 534.656,-40.8864"/>
<polygon fill="#333333" stroke="#333333" points="535.138,-42.5909 539.891,-40.2523 534.717,-39.1163 535.138,-42.5909"/>
</g>
<!-- place_cloturee -->
<g id="node3" class="node"><title>place_cloturee</title>
<ellipse fill="none" stroke="#333333" cx="468" cy="-113" rx="36" ry="36"/>
<text text-anchor="middle" x="468" y="-110.8" font-family="Arial" font-size="9.00">Cloturee</text>
</g>
<!-- transition_to_activiteencours -->
<g id="node9" class="node"><title>transition_to_activiteencours</title>
<polygon fill="none" stroke="#333333" points="612,-162 540,-162 540,-90 612,-90 612,-162"/>
<text text-anchor="middle" x="576" y="-123.8" font-family="Arial" font-size="9.00">to_ActiviteEnCours</text>
</g>
<!-- place_cloturee&#45;&gt;transition_to_activiteencours -->
<g id="edge5" class="edge"><title>place_cloturee&#45;&gt;transition_to_activiteencours</title>
<path fill="none" stroke="#333333" d="M504.002,-117.293C513.759,-118.489 524.439,-119.799 534.485,-121.031"/>
<polygon fill="#333333" stroke="#333333" points="534.497,-122.796 539.672,-121.667 534.923,-119.322 534.497,-122.796"/>
</g>
<!-- place_cloturee&#45;&gt;transition_is_anulee -->
<g id="edge9" class="edge"><title>place_cloturee&#45;&gt;transition_is_anulee</title>
<path fill="none" stroke="#333333" d="M497.685,-92.1627C509.363,-83.6794 523.052,-73.7355 535.64,-64.5916"/>
<polygon fill="#333333" stroke="#333333" points="536.845,-65.8791 539.862,-61.5246 534.788,-63.0473 536.845,-65.8791"/>
</g>
<!-- place_activiteencours -->
<g id="node4" class="node"><title>place_activiteencours</title>
<ellipse fill="none" stroke="#333333" cx="684" cy="-126" rx="36" ry="36"/>
<text text-anchor="middle" x="684" y="-123.8" font-family="Arial" font-size="9.00">ActiviteEnCours</text>
</g>
<!-- transition_to_passee -->
<g id="node11" class="node"><title>transition_to_passee</title>
<polygon fill="none" stroke="#333333" points="828,-162 756,-162 756,-90 828,-90 828,-162"/>
<text text-anchor="middle" x="792" y="-123.8" font-family="Arial" font-size="9.00">to_Passee</text>
</g>
<!-- place_activiteencours&#45;&gt;transition_to_passee -->
<g id="edge11" class="edge"><title>place_activiteencours&#45;&gt;transition_to_passee</title>
<path fill="none" stroke="#333333" d="M720.002,-126C729.759,-126 740.439,-126 750.485,-126"/>
<polygon fill="#333333" stroke="#333333" points="750.672,-127.75 755.672,-126 750.672,-124.25 750.672,-127.75"/>
</g>
<!-- place_passee -->
<g id="node5" class="node"><title>place_passee</title>
<ellipse fill="none" stroke="#333333" cx="900" cy="-126" rx="36" ry="36"/>
<text text-anchor="middle" x="900" y="-123.8" font-family="Arial" font-size="9.00">Passee</text>
</g>
<!-- place_annulee -->
<g id="node6" class="node"><title>place_annulee</title>
<ellipse fill="none" stroke="#333333" cx="684" cy="-36" rx="36" ry="36"/>
<text text-anchor="middle" x="684" y="-33.8" font-family="Arial" font-size="9.00">Annulee</text>
</g>
<!-- transition_to_ouverte&#45;&gt;place_ouverte -->
<g id="edge2" class="edge"><title>transition_to_ouverte&#45;&gt;place_ouverte</title>
<path fill="none" stroke="#333333" d="M180.002,-75C189.759,-75 200.439,-75 210.485,-75"/>
<polygon fill="#333333" stroke="#333333" points="210.672,-76.7501 215.672,-75 210.672,-73.2501 210.672,-76.7501"/>
</g>
<!-- transition_to_cloturee&#45;&gt;place_cloturee -->
<g id="edge4" class="edge"><title>transition_to_cloturee&#45;&gt;place_cloturee</title>
<path fill="none" stroke="#333333" d="M396.002,-113C405.759,-113 416.439,-113 426.485,-113"/>
<polygon fill="#333333" stroke="#333333" points="426.672,-114.75 431.672,-113 426.672,-111.25 426.672,-114.75"/>
</g>
<!-- transition_to_activiteencours&#45;&gt;place_activiteencours -->
<g id="edge6" class="edge"><title>transition_to_activiteencours&#45;&gt;place_activiteencours</title>
<path fill="none" stroke="#333333" d="M612.002,-126C621.759,-126 632.439,-126 642.485,-126"/>
<polygon fill="#333333" stroke="#333333" points="642.672,-127.75 647.672,-126 642.672,-124.25 642.672,-127.75"/>
</g>
<!-- transition_is_anulee&#45;&gt;place_annulee -->
<g id="edge10" class="edge"><title>transition_is_anulee&#45;&gt;place_annulee</title>
<path fill="none" stroke="#333333" d="M612.002,-36C621.759,-36 632.439,-36 642.485,-36"/>
<polygon fill="#333333" stroke="#333333" points="642.672,-37.7501 647.672,-36 642.672,-34.2501 642.672,-37.7501"/>
</g>
<!-- transition_to_passee&#45;&gt;place_passee -->
<g id="edge12" class="edge"><title>transition_to_passee&#45;&gt;place_passee</title>
<path fill="none" stroke="#333333" d="M828.002,-126C837.759,-126 848.439,-126 858.485,-126"/>
<polygon fill="#333333" stroke="#333333" points="858.672,-127.75 863.672,-126 858.672,-124.25 858.672,-127.75"/>
</g>
</g>
</svg>
